<svg width="59" height="59" viewBox="0 0 59 59" fill="none" xmlns="http://www.w3.org/2000/svg">
<mask id="mask0_37414_6307" style="mask-type:luminance" maskUnits="userSpaceOnUse" x="0" y="0" width="59" height="59">
<path d="M29.3337 56.0003C32.8362 56.0047 36.3051 55.3169 39.541 53.9765C42.7769 52.6361 45.7161 50.6695 48.1897 48.1897C50.6695 45.7161 52.6361 42.7769 53.9765 39.541C55.3169 36.3051 56.0047 32.8362 56.0003 29.3337C56.0047 25.8311 55.3169 22.3623 53.9765 19.1263C52.6361 15.8904 50.6695 12.9512 48.1897 10.4777C45.7161 7.99789 42.7769 6.0313 39.541 4.6909C36.3051 3.35049 32.8362 2.66269 29.3337 2.66701C25.8311 2.66269 22.3623 3.35049 19.1263 4.6909C15.8904 6.0313 12.9512 7.99789 10.4777 10.4777C7.99789 12.9512 6.0313 15.8904 4.6909 19.1263C3.35049 22.3623 2.66269 25.8311 2.66701 29.3337C2.66269 32.8362 3.35049 36.3051 4.6909 39.541C6.0313 42.7769 7.99789 45.7161 10.4777 48.1897C12.9512 50.6695 15.8904 52.6361 19.1263 53.9765C22.3623 55.3169 25.8311 56.0047 29.3337 56.0003Z" fill="white" stroke="white" stroke-width="5.33333" stroke-linejoin="round"/>
<path d="M18.667 29.334L26.667 37.334L42.667 21.334" stroke="black" stroke-width="5.33333" stroke-linecap="round" stroke-linejoin="round"/>
</mask>
<g mask="url(#mask0_37414_6307)">
<path d="M-2.66602 -2.66602H61.334V61.334H-2.66602V-2.66602Z" fill="#44AB09"/>
</g>
</svg>
